<svg xmlns="http://www.w3.org/2000/svg" width="70" height="70" viewBox="0 0 70 70">
    <defs>
        <filter id="ckfibgdc7a">
            <feColorMatrix in="SourceGraphic" values="0 0 0 0 0.400000 0 0 0 0 0.400000 0 0 0 0 0.400000 0 0 0 1.000000 0"/>
        </filter>
    </defs>
    <g fill="none" fill-rule="evenodd">
        <g>
            <g transform="translate(-1363 -462) translate(1363 462)">
                <rect width="49" height="49" x="9" y="9" fill="#ECECEC" rx="24.5"/>
                <rect width="7" height="7" x="54" y="9" fill="#DFDFDF" rx="3.5"/>
                <rect width="17" height="17" x="8" y="43" fill="#DFDFDF" rx="8.5"/>
                <rect width="9" height="9" x="53" y="51" fill="#ECECEC" rx="4.5"/>
                <g filter="url(#ckfibgdc7a)">
                    <g fill="#000" fill-rule="nonzero">
                        <path d="M44.46 15.93H9.54c-.298 0-.539.242-.539.542v22.916c0 .3.241.542.539.542H44.46c.298 0 .539-.243.539-.542V16.472c0-.3-.241-.542-.54-.542zM10.079 34.203l7.824-7.326 5.976 7.431c.095.118.235.191.386.2.15.007.298-.045.407-.15l5.813-5.639 8.659 10.128H10.078v-4.644zm33.844 4.643h-3.359l-9.635-11.27c-.096-.112-.235-.18-.383-.188-.146-.011-.292.048-.399.152l-5.8 5.626-5.97-7.423c-.094-.117-.232-.19-.381-.2-.148-.011-.296.042-.405.145l-7.512 7.034V17.014h33.844v21.832z" transform="translate(9 11.07)"/>
                        <path d="M37 27.93c-2.206 0-4-1.795-4-4 0-2.206 1.794-4 4-4s4 1.794 4 4c0 2.205-1.794 4-4 4zm0-6.922c-1.61 0-2.921 1.31-2.921 2.921 0 1.61 1.31 2.921 2.921 2.921 1.61 0 2.921-1.31 2.921-2.92 0-1.611-1.31-2.922-2.921-2.922z" transform="translate(9 11.07)"/>
                        <path d="M47.467 11.523H44.01L41.764 1.348c-.031-.139-.115-.26-.234-.335-.12-.076-.264-.101-.402-.071L.418 9.964c-.138.03-.259.114-.335.234-.075.12-.1.265-.07.402L5.24 34.261v7.134c0 .296.239.535.533.535h41.694c.295 0 .533-.24.533-.535V12.058c0-.296-.238-.535-.533-.535zm-46.298-.632L40.837 2.1l2.081 9.423H5.773c-.295 0-.534.24-.534.534v17.258L1.17 10.891zm45.764 29.97H6.306v-28.27h40.627v28.27z" transform="translate(9 11.07)"/>
                    </g>
                </g>
            </g>
        </g>
    </g>
</svg>
