<svg xmlns="http://www.w3.org/2000/svg" width="70" height="70" viewBox="0 0 70 70">
    <defs>
        <filter id="8rabysls3a">
            <feColorMatrix in="SourceGraphic" values="0 0 0 0 0.400000 0 0 0 0 0.400000 0 0 0 0 0.400000 0 0 0 1.000000 0"/>
        </filter>
    </defs>
    <g fill="none" fill-rule="evenodd">
        <g>
            <g transform="translate(-1453 -462) translate(1453 462)">
                <rect width="49" height="49" x="9" y="8" fill="#ECECEC" rx="24.5"/>
                <rect width="17" height="17" x="45" y="7" fill="#DFDFDF" rx="8.5" transform="rotate(180 53.5 15.5)"/>
                <rect width="7" height="7" x="12" y="55" fill="#DFDFDF" rx="3.5" transform="rotate(180 15.5 58.5)"/>
                <rect width="9" height="9" x="7" y="13" fill="#F5F5F5" rx="4.5" transform="rotate(180 11.5 17.5)"/>
                <g filter="url(#8rabysls3a)">
                    <g fill="#000" fill-rule="nonzero">
                        <path d="M17 30c-3.33 0-6.661-1.268-9.197-3.803-5.07-5.071-5.07-13.322 0-18.394 5.071-5.07 13.323-5.07 18.394 0 5.07 5.072 5.07 13.323 0 18.394C23.66 28.732 20.33 30 17 30zm0-24.963c-3.065 0-6.13 1.167-8.463 3.5-4.666 4.667-4.666 12.26 0 16.926 4.666 4.665 12.26 4.665 16.926 0 4.666-4.667 4.666-12.26 0-16.926-2.334-2.333-5.399-3.5-8.463-3.5z" transform="translate(14 15)"/>
                        <path d="M45.03 40.336L31.576 26.88c4.617-6.843 3.756-15.958-2.118-21.833-6.73-6.73-17.68-6.729-24.41 0-6.73 6.73-6.73 17.68 0 24.41 5.875 5.874 14.99 6.735 21.833 2.118l13.456 13.456c.625.625 1.459.969 2.348.969.89 0 1.722-.344 2.347-.97.625-.624.969-1.457.969-2.347 0-.889-.344-1.722-.97-2.347zm-18.09-9.935c-.103 0-.207.03-.296.094-6.472 4.603-15.251 3.862-20.874-1.761-6.33-6.331-6.33-16.633 0-22.964 6.33-6.33 16.632-6.33 22.964 0 5.623 5.622 6.363 14.401 1.76 20.874-.143.203-.12.482.056.657l1.517 1.517-3.25 3.249-1.516-1.517c-.098-.099-.23-.15-.361-.15zm17.368 13.907c-.895.896-2.353.896-3.249 0L29.541 32.79l3.25-3.25L44.307 41.06c.896.896.896 2.353 0 3.25z" transform="translate(14 15)"/>
                        <path d="M12.395 23c-.155 0-.31-.052-.428-.157-3.956-3.498-3.956-9.189 0-12.686.236-.21.62-.21.856 0s.236.548 0 .757c-3.484 3.08-3.484 8.092 0 11.173.236.209.236.548 0 .756-.118.105-.273.157-.428.157zM24.312 20c-.04 0-.08-.011-.12-.035-.159-.095-.234-.36-.168-.591.435-1.521.468-3.216.093-4.772-.057-.236.03-.494.192-.577.164-.082.34.042.398.279.425 1.766.387 3.69-.107 5.416-.05.175-.166.28-.288.28z" transform="translate(14 15)"/>
                    </g>
                </g>
            </g>
        </g>
    </g>
</svg>
