<svg width="127" height="38" viewBox="0 0 127 38" fill="none" xmlns="http://www.w3.org/2000/svg">
<path d="M40.4218 13.9178L39.1579 16.3184C37.7652 15.5677 36.4791 15.1612 35.5151 15.1612C34.8507 15.1612 34.3794 15.4177 34.3794 15.9535C34.3794 17.5395 40.4649 16.768 40.4427 20.7971C40.4427 23.1759 38.3653 24.4832 35.5795 24.4832C33.6511 24.4832 31.7872 23.9261 30.394 22.8545L31.5728 20.4971C32.8798 21.4186 34.3794 21.933 35.6651 21.933C36.3939 21.933 36.9291 21.676 36.9291 21.1403C36.9291 19.4468 30.951 20.3257 30.9728 16.2753C30.9728 13.8965 32.9868 12.6106 35.6651 12.6106C37.3365 12.6106 39.0074 13.082 40.4218 13.9178Z" fill="black"/>
<path d="M53.4483 17.0467V24.333H49.7629V18.0756C49.7629 16.7253 48.9698 15.8895 47.7276 15.8895C46.3776 15.8895 45.5201 16.854 45.3706 18.2256V24.333H41.6635V12.7818H45.3706V14.6679C46.1845 13.3176 47.5133 12.6322 49.2272 12.6105C51.7769 12.6105 53.4483 14.3465 53.4483 17.0467Z" fill="black"/>
<path d="M61.8033 20.4121V19.3831H59.468C58.3536 19.3831 57.797 19.7689 57.797 20.626C57.797 21.4623 58.3971 21.9976 59.4249 21.9976C60.5824 21.9976 61.5681 21.3549 61.8033 20.4121ZM65.4456 16.7904V24.3338H61.825V23.0053C61.0754 23.9911 59.8536 24.5051 58.2897 24.5051C55.8257 24.5051 54.326 23.0053 54.326 20.8835C54.326 18.6973 55.89 17.4119 58.761 17.3901H61.8033V17.2188C61.8033 16.0829 61.0537 15.3971 59.5541 15.3971C58.5897 15.3971 57.3253 15.7397 56.1039 16.3616L55.0543 13.9185C56.8544 13.0827 58.4823 12.6108 60.4106 12.6108C63.582 12.6108 65.4247 14.1755 65.4456 16.7904Z" fill="black"/>
<path d="M76.1793 18.5045C76.1793 16.7471 75.1293 15.5043 73.5866 15.5043C72.0875 15.5043 71.0374 16.7471 71.0374 18.5045C71.0374 20.3049 72.0875 21.526 73.5866 21.526C75.1293 21.526 76.1793 20.2831 76.1793 18.5045ZM79.9082 18.6114C79.9082 22.1261 77.8086 24.4618 74.5723 24.4618C73.0732 24.4618 71.8513 23.8617 71.0374 22.7906V28.491H67.3307V12.7824H71.0374V14.304C71.8513 13.2538 73.0296 12.6536 74.4871 12.6536C77.7442 12.6536 79.9082 15.0324 79.9082 18.6114Z" fill="black"/>
<path d="M100.263 17.3683V24.3333H98.5918V17.8184C98.5918 15.804 97.413 14.6251 95.4629 14.6251C93.1276 14.6894 91.778 16.3611 91.778 18.7829V24.3333H90.0854V17.8184C90.0854 15.804 88.9284 14.6251 86.957 14.6251C84.643 14.6894 83.2498 16.3611 83.2498 18.7829V24.3333H81.5993V13.0391H83.2498V15.5896C83.9999 13.8323 85.5212 12.9965 87.557 12.9752C89.6779 12.9752 91.1349 14.068 91.6067 15.9323C92.3132 13.9397 93.899 12.9965 96.0634 12.9752C98.6987 12.9752 100.263 14.6464 100.263 17.3683Z" fill="#0347F7"/>
<path d="M103.111 13.0395H104.76V24.3337H103.111V13.0395ZM105.018 9.80318C105.018 10.4677 104.546 10.9604 103.925 10.9604C103.304 10.9604 102.832 10.4677 102.832 9.80318C102.832 9.13914 103.304 8.64598 103.925 8.64598C104.546 8.64598 105.018 9.13914 105.018 9.80318Z" fill="#0347F7"/>
<path d="M118.302 17.3683V24.3333H116.631V17.8184C116.631 15.8253 115.431 14.6464 113.438 14.6464C111.21 14.6681 109.839 16.1249 109.646 18.268V24.3333H107.974V13.0391H109.646V15.5253C110.439 13.8105 111.959 12.9965 114.016 12.9752C116.716 12.9752 118.302 14.6464 118.302 17.3683Z" fill="#0347F7"/>
<path d="M127 23.5621C126.207 24.0978 125.35 24.3979 124.45 24.4197C122.801 24.4197 121.579 23.4338 121.579 21.2046V14.7541H119.951V13.4038H121.579V10.4249H123.229V13.4038L126.807 13.3825V14.7541H123.229V20.9045C123.229 22.2766 123.765 22.7906 124.729 22.7906C125.307 22.7906 125.907 22.5975 126.529 22.2118L127 23.5621Z" fill="#0347F7"/>
<path d="M3.78814 13.2531C2.59364 9.95054 3.80944 7.29485 4.68587 5.95844C5.86556 4.15943 7.7212 3.01381 9.20831 2.58593C9.21201 4.80541 9.20877 8.4942 9.20738 9.58703C8.28141 9.85839 5.57804 10.8243 3.78814 13.2531ZM9.65046 0.503059C7.42859 1.22915 5.26182 2.82441 3.5548 4.98647C1.39821 7.59492 0.174545 10.76 0.0166676 14.1519L0.0152785 14.2047C0.00740776 14.3821 0.00277803 14.5599 0.00138907 14.7354L0 14.8739C0 15.0494 0.00370402 15.2239 0.0101858 15.3985L0.0115749 15.455C0.247234 21.8277 4.45808 27.4971 10.4917 29.5623L11.0348 29.748V18.6766L10.6686 18.6367C10.0676 18.5714 9.46943 18.4385 8.89116 18.2427C7.11423 17.6388 5.58777 16.4469 4.56688 14.8739C5.59147 13.2939 7.12488 12.1006 8.91061 11.4981C9.48147 11.3055 10.0722 11.1754 10.6686 11.111L11.0348 11.0712V-0.000293732L10.4917 0.185396C10.2088 0.281715 9.91621 0.392387 9.65046 0.503059Z" fill="#0347F7"/>
<path d="M15.2009 35.4126C15.1972 33.1932 15.2009 29.5044 15.2013 28.4115C16.1277 28.1402 18.8316 27.1742 20.6201 24.7459C21.8164 28.048 20.5997 30.7032 19.7233 32.0406C18.545 33.8387 16.6884 34.9843 15.2009 35.4126ZM24.3999 22.601L24.3971 22.5431C24.1629 16.1713 19.952 10.502 13.9179 8.43624L13.3753 8.25055V19.3225L13.7415 19.3618C14.3425 19.4271 14.9402 19.5596 15.518 19.7554C17.2949 20.3597 18.8214 21.5512 19.8423 23.1247C18.8177 24.7051 17.2843 25.8985 15.499 26.5005C14.9282 26.6931 14.3374 26.8232 13.7415 26.888L13.3753 26.9274V37.9998L13.9179 37.8136C14.2119 37.7122 14.5017 37.6025 14.7592 37.496C16.9815 36.769 19.1483 35.1732 20.8544 33.0116C23.0114 30.4036 24.2346 27.2386 24.393 23.8429L24.3934 23.7934C24.4018 23.6151 24.4068 23.4382 24.4082 23.2395L24.4096 23.1247C24.4096 22.9497 24.4059 22.7746 24.3999 22.601Z" fill="#0347F7"/>
</svg>
